Coordinates
version=1
nRows=65
nColumns=12
inDegrees=yes

Units are S.I. units (second, meters, Newtons, ...)
Angles are in degrees

endheader
time	SC_y	SC_z	SC_x	AC_y	AC_z	AC_x	GH_y	GH_z	GH_yy	EL_x	PS_y
       0.0              -36.56        -0.5899          1.985          65.56         -14.75           10.1          78.19          34.66         -145.5          36.84          115.4
   0.04512              -36.55        -0.5848          1.994          65.56         -14.74          10.09          78.18          34.66         -145.5          36.84          115.4
   0.09024              -36.55        -0.5794          2.004          65.56         -14.74          10.09          78.16          34.66         -145.4          36.84          115.4
    0.1354              -36.55        -0.5737          2.014          65.55         -14.74          10.08          78.14          34.65         -145.4          36.83          115.4
    0.1805              -36.54        -0.5676          2.024          65.55         -14.74          10.08          78.13          34.65         -145.4          36.83          115.4
    0.2256              -36.54        -0.5611          2.036          65.55         -14.74          10.07          78.11          34.65         -145.3          36.83          115.4
    0.2707              -36.54        -0.5542          2.048          65.54         -14.74          10.07          78.08          34.65         -145.3          36.82          115.4
    0.3158              -36.53        -0.5467          2.061          65.54         -14.74          10.06          78.06          34.64         -145.3          36.82          115.4
     0.361              -36.53        -0.5388          2.075          65.54         -14.74          10.05          78.04          34.64         -145.2          36.82          115.4
    0.4061              -36.52        -0.5303           2.09          65.53         -14.74          10.05          78.01          34.64         -145.2          36.81          115.4
    0.4512              -36.52        -0.5211          2.106          65.53         -14.74          10.04          77.99          34.63         -145.2          36.81          115.5
    0.4963              -36.51        -0.5113          2.124          65.52         -14.74          10.03          77.96          34.63         -145.1           36.8          115.5
    0.5414              -36.51        -0.5006          2.142          65.52         -14.73          10.02          77.92          34.63         -145.1           36.8          115.5
    0.5866               -36.5        -0.4891          2.162          65.51         -14.73          10.01          77.89          34.62         -145.0          36.79          115.5
    0.6317              -36.49        -0.4767          2.184           65.5         -14.73           10.0          77.85          34.62         -145.0          36.78          115.5
    0.6768              -36.49        -0.4633          2.208           65.5         -14.73           9.99          77.81          34.61         -144.9          36.78          115.5
    0.7219              -36.48        -0.4486          2.234          65.49         -14.73          9.978          77.77          34.61         -144.8          36.77          115.5
     0.767              -36.47        -0.4327          2.262          65.48         -14.73          9.964          77.72           34.6         -144.7          36.76          115.5
    0.8122              -36.46        -0.4152          2.292          65.47         -14.72           9.95          77.67           34.6         -144.7          36.75          115.5
    0.8573              -36.45        -0.3962          2.326          65.46         -14.72          9.933          77.61          34.59         -144.6          36.74          115.6
    0.9024              -36.44        -0.3752          2.363          65.45         -14.72          9.916          77.55          34.58         -144.5          36.73          115.6
    0.9475              -36.43        -0.3522          2.403          65.44         -14.72          9.896          77.48          34.57         -144.4          36.72          115.6
    0.9927              -36.41        -0.3267          2.448          65.42         -14.71          9.875           77.4          34.56         -144.3          36.71          115.6
     1.038               -36.4        -0.2985          2.497          65.41         -14.71          9.851          77.32          34.55         -144.1          36.69          115.6
     1.083              -36.38        -0.2672          2.553          65.39          -14.7          9.824          77.22          34.54         -144.0          36.68          115.7
     1.128              -36.36        -0.2322          2.614          65.37          -14.7          9.795          77.12          34.53         -143.8          36.66          115.7
     1.173              -36.34         -0.193          2.683          65.35         -14.69          9.762           77.0          34.51         -143.6          36.64          115.7
     1.218              -36.32        -0.1489           2.76          65.33         -14.69          9.724          76.87           34.5         -143.4          36.61          115.7
     1.263              -36.29       -0.09914          2.848           65.3         -14.68          9.682          76.72          34.48         -143.2          36.59          115.8
     1.308              -36.26       -0.04258          2.948          65.27         -14.68          9.634          76.55          34.46         -142.9          36.56          115.8
     1.354              -36.22        0.02197          3.061          65.24         -14.67           9.58          76.35          34.43         -142.6          36.53          115.9
     1.399              -36.18        0.09605          3.191           65.2         -14.66          9.517          76.13          34.41         -142.3          36.49          115.9
     1.444              -36.14         0.1816          3.342          65.15         -14.65          9.445          75.87          34.37         -141.9          36.44          116.0
     1.489              -36.08          0.281          3.516           65.1         -14.63          9.361          75.58          34.34         -141.5          36.39          116.1
     1.534              -36.02         0.3972          3.721          65.04         -14.62          9.262          75.23          34.29         -140.9          36.33          116.2
     1.579              -35.94         0.5343          3.962          64.97          -14.6          9.147          74.81          34.24         -140.3          36.26          116.3
     1.624              -35.86         0.6972          4.248          64.88         -14.58          9.009          74.32          34.18         -139.5          36.18          116.4
     1.669              -35.75         0.8925          4.592          64.78         -14.56          8.844          73.74          34.11         -138.6          36.08          116.6
     1.715              -35.62          1.129          5.007          64.65         -14.53          8.644          73.03          34.02         -137.5          35.95          116.8
      1.76              -35.46          1.417          5.514           64.5         -14.49            8.4          72.16          33.91         -136.2          35.81          117.0
     1.805              -35.27          1.773           6.14          64.31         -14.45          8.099          71.09          33.78         -134.6          35.62          117.3
      1.85              -35.03          2.218          6.921          64.08         -14.39          7.723          69.76          33.62         -132.5          35.39          117.6
     1.895              -34.72          2.777          7.905          63.78         -14.32           7.25          68.07          33.41         -129.9           35.1          118.1
      1.94              -34.34          3.488          9.155          63.41         -14.23          6.648          65.94          33.14         -126.6          34.74          118.6
     1.985              -33.84          4.399          10.76          62.93         -14.11          5.879           63.2           32.8         -122.4          34.27          119.3
      2.03              -33.21          5.567          12.81          62.31         -13.97          4.891          59.69          32.37         -117.0          33.66          120.3
     2.076              -32.39          7.059          15.43          61.52         -13.78          3.629          55.21          31.81         -110.1          32.89          121.5
     2.121              -31.37          8.936          18.73          60.53         -13.54          2.042          49.57          31.12         -101.4          31.93          122.9
     2.166              -30.13          11.22          22.75          59.32         -13.25         0.1083           42.7          30.27         -90.87          30.75          124.7
     2.211              -28.69          13.87          27.41          57.92         -12.91         -2.133          34.74          29.28         -78.62          29.38          126.8
     2.256              -27.13          16.74          32.46          56.41         -12.55          -4.56          26.11          28.21         -65.35           27.9          129.1
     2.301              -25.56          19.61           37.5          54.89         -12.19         -6.987          17.49          27.14         -52.09          26.42          131.4
     2.346              -24.12          22.26          42.16          53.49         -11.85         -9.228          9.525          26.16         -39.84          25.05          133.5
     2.391              -22.88          24.55          46.18          52.28         -11.56         -11.16          2.654          25.31         -29.27          23.87          135.3
     2.437              -21.86          26.43          49.48          51.29         -11.32         -12.75         -2.984          24.61         -20.59           22.9          136.8
     2.482              -21.04          27.92          52.11          50.51         -11.13         -14.01         -7.468          24.05         -13.69          22.13          138.0
     2.527              -20.41          29.09          54.16          49.89         -10.99          -15.0         -10.98          23.62         -8.294          21.53          138.9
     2.572              -19.91           30.0          55.76          49.41         -10.87         -15.77         -13.71          23.28         -4.086          21.06          139.6
     2.617              -19.53          30.71          57.01          49.03         -10.78         -16.37         -15.85          23.02        -0.7984          20.69          140.2
     2.662              -19.22          31.27           58.0          48.74         -10.71         -16.84         -17.53          22.81          1.788           20.4          140.6
     2.707              -18.98          31.71          58.78           48.5         -10.65         -17.22         -18.87          22.64          3.841          20.17          141.0
     2.752              -18.79          32.07           59.4          48.31         -10.61         -17.52         -19.94          22.51          5.487          19.99          141.2
     2.797              -18.63          32.36          59.91          48.16         -10.57         -17.76          -20.8           22.4          6.822          19.84          141.5
     2.843               -18.5          32.59          60.33          48.04         -10.54         -17.96         -21.51          22.31          7.913          19.72          141.7
     2.888               -18.4          32.79          60.67          47.93         -10.52         -18.13          -22.1          22.24          8.816          19.62          141.8
